<?xml version="1.0" encoding="utf-8"?>
<!-- Generator: Adobe Illustrator 16.0.4, SVG Export Plug-In . SVG Version: 6.00 Build 0)  -->
<!DOCTYPE svg PUBLIC "-//W3C//DTD SVG 1.1//EN" "http://www.w3.org/Graphics/SVG/1.1/DTD/svg11.dtd">
<svg version="1.1" xmlns="http://www.w3.org/2000/svg" xmlns:xlink="http://www.w3.org/1999/xlink" x="0px" y="0px" width="2200px"
	 height="700px" viewBox="0 0 2200 700" style="enable-background:new 0 0 2200 700;" xml:space="preserve">
<style type="text/css">
<![CDATA[
	.st0{display:none;fill:#FFFFFF;}
	.st1{display:inline;fill:#FFFFFF;}
	.st2{fill:#FFFFFF;}
	.st3{display:inline;}
	.st4{font-size:109.8102;}
	.st5{display:none;}
	.st6{font-family:'Hind-Light';}
]]>
</style>
<g id="Background" class="st5">
	<rect class="st3" width="2200" height="700"/>
</g>
<g id="Logo">
	<g>
		<path class="st2" d="M466.5,441.9c-8.4-33.9-55-217.1-80.2-214.6c-14,1.3-34.5,57.1-51.5,112.1c-10.8-31.9-22.2-58.2-30.6-57.4
			c-9.4,0.9-22.8,34.6-34.6,71.3C248,276.8,217,182.1,197.1,184c-30.4,2.9-86.8,220.8-96.2,257.9h-1.4v10.8h2000v-10.8H466.5z
			 M196,248.3l-29.9,19.6c12.7-35.4,23.5-59.2,30.6-67.9c7.1,8.8,17.8,32.5,30.3,67.9L196,248.3z M386.4,281.9l-25,16.4
			c10.6-29.6,19.6-49.4,25.6-56.8c5.9,7.3,14.9,27.1,25.3,56.8L386.4,281.9z"/>
	</g>
	<path class="st2" d="M307.9,96.1c20.6,0,37.5,16.9,37.5,37.5c0,20.7-16.9,37.6-37.5,37.6c-20.7,0-37.6-16.9-37.6-37.6
		C270.3,113,287.2,96.1,307.9,96.1z"/>
	<g>
		<line class="st2" x1="308" y1="83.7" x2="308" y2="41.3"/>
		<polygon class="st2" points="302.7,83.7 308,41.3 313.4,83.7 		"/>
	</g>
	<g>
		<line class="st2" x1="345.4" y1="99.1" x2="375.4" y2="69.2"/>
		<polygon class="st2" points="341.6,95.3 375.4,69.2 349.2,102.9 		"/>
	</g>
	<g>
		<line class="st2" x1="271.6" y1="98.7" x2="241.6" y2="68.7"/>
		<polygon class="st2" points="267.8,102.5 241.6,68.7 275.4,94.9 		"/>
	</g>
	<g>
		<line class="st2" x1="258.5" y1="132.5" x2="216.1" y2="132.5"/>
		<polygon class="st2" points="258.5,137.8 216.1,132.5 258.5,127.1 		"/>
	</g>
	<g>
		<line class="st2" x1="357.6" y1="131.5" x2="400" y2="131.5"/>
		<polygon class="st2" points="357.6,126.2 400,131.5 357.6,136.9 		"/>
	</g>
	<g>
		<line class="st2" x1="344.9" y1="166.7" x2="374.9" y2="196.7"/>
		<polygon class="st2" points="348.7,163 374.9,196.7 341.1,170.5 		"/>
	</g>
	<g>
		<line class="st2" x1="271.1" y1="167.2" x2="241.2" y2="197.2"/>
		<polygon class="st2" points="274.9,171 241.2,197.2 267.3,163.4 		"/>
	</g>
	<g>
		<line class="st2" x1="307.9" y1="184" x2="307.9" y2="226.4"/>
		<polygon class="st2" points="302.5,184 307.9,226.4 313.2,184 		"/>
	</g>
	<g id="Orig-Inclined" class="st5">
		<path class="st1" d="M523.9,37.5H536v168.7h-12.1V37.5z"/>
		<path class="st1" d="M584,206.2V91h11.8v19.8c8.9-11.1,26-22.7,48.7-22.7c29.9,0,44.6,17.8,44.6,48v70.1h-11.8v-67.7
			c0-33.7-21.5-39.3-36.4-39.3c-18.6,0-37.4,13.5-45.1,26.3v80.8H584z"/>
		<path class="st1" d="M721.4,148.6c0-33.3,25.1-60.5,61-60.5c13.7,0,25.3,3.4,34.7,8.9v11.3c-10.4-6-21.7-9.4-33.3-9.4
			c-28.7,0-50.4,21.5-50.4,49.9c0,28.2,21.7,49.4,50.4,49.4c14.2,0,25.6-3.9,35.4-10.8V199c-10.4,6.7-22.9,10.1-37.1,10.1
			C746.4,209.1,721.4,181.9,721.4,148.6z"/>
		<path class="st1" d="M856.1,182.1V37.5h11.8v142c0,12.3,5.8,18.3,16.9,18.3c4.6,0,8.4-1.2,12.1-3.4v11.3
			c-4.8,2.7-10.4,3.4-15.7,3.4C869.6,209.1,856.1,203.6,856.1,182.1z"/>
		<path class="st1" d="M933,40.8c5.3,0,9.6,4.3,9.6,9.6c0,5.3-4.3,9.6-9.6,9.6c-5.3,0-9.6-4.3-9.6-9.6
			C923.3,45.2,927.7,40.8,933,40.8z M927.2,91H939v115.2h-11.8V91z"/>
		<path class="st1" d="M985.3,206.2V91h11.8v19.8c8.9-11.1,26-22.7,48.7-22.7c29.9,0,44.6,17.8,44.6,48v70.1h-11.8v-67.7
			c0-33.7-21.5-39.3-36.4-39.3c-18.6,0-37.4,13.5-45.1,26.3v80.8H985.3z"/>
		<path class="st1" d="M1122.7,148.8c0-34.5,23.4-60.7,57.4-60.7c40.3,0,53.3,35.4,53.3,58.6v3.9h-98.8c1,28.4,22.4,47.7,52.8,47.7
			c15.2,0,27.7-4.3,37.1-10.8v11.3c-7.7,5.8-22.2,10.4-38.8,10.4C1149.9,209.1,1122.7,184.3,1122.7,148.8z M1221.5,140.4
			c0-16.1-11.1-41.5-41.7-41.5c-28,0-43.9,21.7-45.1,41.5H1221.5z"/>
		<path class="st1" d="M1259.6,148.8c0-32.1,23.1-60.7,58.6-60.7c21.5,0,37.6,9.9,47.3,23.1V37.5h11.8v168.7h-11.8v-20
			c-9.6,13.3-25.8,22.9-47.3,22.9C1282.7,209.1,1259.6,180.7,1259.6,148.8z M1365.4,170.1v-42.7c-7.7-15.9-25.1-28.4-44.8-28.4
			c-28,0-48.9,21.7-48.9,49.9c0,27.7,21,49.4,48.9,49.4C1340.1,198.3,1357.7,186.4,1365.4,170.1z"/>
		<path class="st1" d="M1447.3,37.7h12.3l64.8,85.3l64.8-85.3h11.8v168.7h-12.1V56.3l-60.8,80h-7.7l-61.2-80v150.2h-12.1V37.7z"/>
		<path class="st1" d="M1657,41.1c5.3,0,9.6,4.3,9.6,9.6c0,5.3-4.3,9.6-9.6,9.6c-5.3,0-9.6-4.3-9.6-9.6
			C1647.4,45.4,1651.7,41.1,1657,41.1z M1651.3,91.2h11.8v115.2h-11.8V91.2z"/>
		<path class="st1" d="M1709.3,206.4V91.2h11.8V111c8.9-11.1,26-22.7,48.7-22.7c29.9,0,44.6,17.8,44.6,48v70.2h-11.8v-67.7
			c0-33.7-21.5-39.3-36.4-39.3c-18.6,0-37.4,13.5-45.1,26.3v80.8H1709.3z"/>
		<path class="st1" d="M1846.7,149.1c0-32.1,23.1-60.7,58.6-60.7c21.5,0,37.6,9.9,47.2,23.1V37.7h11.8v168.7h-11.8v-20
			c-9.6,13.3-25.8,22.9-47.2,22.9C1869.9,209.3,1846.7,180.9,1846.7,149.1z M1952.6,170.3v-42.7c-7.7-15.9-25.1-28.4-44.8-28.4
			c-28,0-48.9,21.7-48.9,49.9c0,27.7,21,49.4,48.9,49.4C1927.2,198.5,1944.8,186.7,1952.6,170.3z"/>
		<path class="st1" d="M1997.4,197.1v-12.5c8,5.5,26,14,47.5,14c21.9,0,36.2-8.2,36.2-22.2c0-13.7-16.2-18.3-39.1-23.9
			c-21.7-5.3-41-12.3-41-32.8c0-18.8,15.4-31.3,44.6-31.3c14.9,0,31.6,4.1,41.7,10.6v12c-10.4-6.5-25.6-11.8-41-11.8
			c-23.4,0-33.5,8.9-33.5,20.5c0,14.7,17.4,18.6,35.2,22.9c22.2,5.3,45.1,11.1,45.1,34c0,21-21.5,32.8-48,32.8
			C2024.4,209.3,2006.1,203.1,1997.4,197.1z"/>
	</g>
	<g id="Orig_Arts_and_Community" class="st5">
		<path class="st1" d="M249.7,478.2h4.1l28.1,62.6h-4.6l-8.2-18.1h-34.8l-8.2,18.1h-4.6L249.7,478.2z M267.5,518.7l-15.7-34.7
			L236,518.7H267.5z"/>
		<path class="st1" d="M292.6,498.2h4.4v8.8c2.8-5,9.4-9.9,17.1-9.9v4.4c-8.8,0-14.8,6-17.1,11.2v27.9h-4.4V498.2z"/>
		<path class="st1" d="M331.6,529.4v-27.3h-10.7v-3.9h10.7v-13.6h4.4v13.6h15.6v3.9h-15.6v26.1c0,7,2.3,9.3,7.9,9.3
			c3.2,0,5.7-1.2,7.1-2v4.2c-1.5,1.1-5,2-8.3,2C334.8,541.8,331.6,536.8,331.6,529.4z"/>
		<path class="st1" d="M360.1,537.3v-4.6c2.9,2,9.6,5.2,17.5,5.2c8.1,0,13.3-3,13.3-8.2c0-5.1-6-6.8-14.4-8.8
			c-8-2-15.1-4.5-15.1-12.1c0-6.9,5.7-11.6,16.4-11.6c5.5,0,11.6,1.5,15.4,3.9v4.4c-3.8-2.4-9.4-4.4-15.1-4.4
			c-8.6,0-12.4,3.3-12.4,7.6c0,5.4,6.4,6.8,13,8.4c8.2,2,16.6,4.1,16.6,12.5c0,7.7-7.9,12.1-17.7,12.1
			C370,541.8,363.3,539.5,360.1,537.3z"/>
		<path class="st1" d="M428.4,527.8c0-8.5,7.8-13.9,17.6-13.9c7.7,0,13.1,2.5,16.4,4.5v-5.4c0-8.4-5.9-11.9-14.9-11.9
			c-6,0-11.4,2.5-14.3,4.5v-4.3c2.8-1.9,8-4.2,15.1-4.2c10.4,0,18.5,4.6,18.5,15.6v18.7c0,3.7,1.8,6,4.5,6c1,0,1.8-0.2,2.5-0.5v3.5
			c-1,0.6-2.3,0.7-3.6,0.7c-3.5,0-7-2.1-7.4-7.3c-3.8,4.3-9.6,8-18.1,8C436.5,541.8,428.4,537.1,428.4,527.8z M462.4,529.5v-6.9
			c-3-2-8.8-4.8-15.3-4.8c-9,0-14.2,3.9-14.2,10c0,7.2,6.5,10,13.1,10C453.5,537.8,459.4,533.4,462.4,529.5z"/>
		<path class="st1" d="M484.5,540.7v-42.5h4.4v7.3c3.3-4.1,9.6-8.4,17.9-8.4c11,0,16.4,6.6,16.4,17.7v25.9h-4.4v-25
			c0-12.4-7.9-14.5-13.4-14.5c-6.8,0-13.8,5-16.6,9.7v29.8H484.5z"/>
		<path class="st1" d="M535.1,519.6c0-11.8,8.5-22.4,21.6-22.4c7.9,0,13.9,3.6,17.4,8.5v-27.2h4.4v62.2h-4.4v-7.4
			c-3.6,4.9-9.5,8.4-17.4,8.4C543.6,541.8,535.1,531.3,535.1,519.6z M574.1,527.4v-15.7c-2.8-5.9-9.2-10.5-16.5-10.5
			c-10.3,0-18,8-18,18.4c0,10.2,7.7,18.2,18,18.2C564.8,537.8,571.3,533.4,574.1,527.4z"/>
		<path class="st1" d="M616.7,509.6c0-18.8,13.7-32.2,31.4-32.2c6.8,0,12.7,1.6,17.8,4.9v4.7c-5.2-3.4-10.8-5.3-17.7-5.3
			c-15,0-26.9,11.7-26.9,27.9c0,16.2,11.9,28,27,28c7.5,0,13.8-2.3,19-6.5v4.9c-5.2,3.8-11.6,5.8-19.2,5.8
			C630.5,541.8,616.7,528.4,616.7,509.6z"/>
		<path class="st1" d="M676.5,519.6c0-11.8,8.9-22.4,22.6-22.4c13.8,0,22.7,10.6,22.7,22.4c0,11.7-8.9,22.2-22.7,22.2
			C685.4,541.8,676.5,531.3,676.5,519.6z M717.3,519.6c0-10.4-7.9-18.4-18.2-18.4c-10.3,0-18.1,8-18.1,18.4
			c0,10.2,7.8,18.2,18.1,18.2C709.4,537.8,717.3,529.8,717.3,519.6z"/>
		<path class="st1" d="M734.4,498.2h4.4v6.9c2.8-4.2,8.4-8,16-8c7.4,0,11.9,3.4,13.8,9c3.1-4.5,8.7-9,17-9c9.6,0,15.1,6.1,15.1,17.1
			v26.5h-4.4v-25.6c0-12.3-7.5-13.9-11.8-13.9c-6.2,0-12.3,4.6-14.9,10c0.1,1.7,0.2,2.8,0.2,4.4v25.1h-4.4V515
			c0-12.4-7.4-13.8-11.7-13.8c-5.9,0-11.9,4.3-14.8,9.5v30h-4.4V498.2z"/>
		<path class="st1" d="M815.6,498.2h4.4v6.9c2.8-4.2,8.4-8,16-8c7.4,0,11.9,3.4,13.8,9c3.1-4.5,8.7-9,17-9c9.6,0,15.1,6.1,15.1,17.1
			v26.5h-4.3v-25.6c0-12.3-7.6-13.9-11.8-13.9c-6.2,0-12.3,4.6-14.9,10c0.1,1.7,0.2,2.8,0.2,4.4v25.1h-4.3V515
			c0-12.4-7.4-13.8-11.7-13.8c-6,0-11.9,4.3-14.9,9.5v30h-4.4V498.2z"/>
		<path class="st1" d="M934.9,498.2v42.5h-4.3v-7.3c-3.3,4.1-9.6,8.4-18,8.4c-11,0-16.4-6.6-16.4-17.7v-25.9h4.3v25
			c0,12.5,7.8,14.5,13.4,14.5c6.8,0,13.7-5,16.6-9.7v-29.8H934.9z"/>
		<path class="st1" d="M950.8,540.7v-42.5h4.4v7.3c3.3-4.1,9.6-8.4,17.9-8.4c11,0,16.5,6.6,16.5,17.7v25.9h-4.4v-25
			c0-12.4-7.9-14.5-13.4-14.5c-6.8,0-13.8,5-16.6,9.7v29.8H950.8z"/>
		<path class="st1" d="M1007.9,479.8c2,0,3.5,1.6,3.5,3.6s-1.6,3.6-3.5,3.6c-1.9,0-3.6-1.6-3.6-3.6S1005.9,479.8,1007.9,479.8z
			 M1005.7,498.2h4.4v42.5h-4.4V498.2z"/>
		<path class="st1" d="M1032.5,529.4v-27.3h-10.8v-3.9h10.8v-13.6h4.3v13.6h15.7v3.9h-15.7v26.1c0,7,2.3,9.3,7.9,9.3
			c3.2,0,5.7-1.2,7.1-2v4.2c-1.5,1.1-5,2-8.3,2C1035.8,541.8,1032.5,536.8,1032.5,529.4z"/>
		<path class="st1" d="M1059.8,557.5v-4.1c1.7,1,3.5,1.4,5.7,1.4c6,0,9.1-5.3,13.3-14.9l-19.6-41.7h4.9l16.9,36.4l16.4-36.4h4.8
			l-21.4,47.3c-3.7,8.2-7.8,13.3-14.7,13.3C1063.5,558.9,1061.2,558.5,1059.8,557.5z"/>
	</g>
	<g>
		<path class="st2" d="M523.1,417.3v-148h13.6v148H523.1z"/>
		<path class="st2" d="M585.4,305.9V325c6.9-13.9,18.7-20.9,35.4-20.9c10.7,0,19.3,3.3,25.7,9.9c6.4,6.6,9.7,15.1,9.7,25.5v77.7
			h-13.4v-73.6c0-8.6-2.2-15.2-6.6-19.8c-4.4-4.5-10.7-6.8-18.8-6.8s-15.5,3.5-22.1,10.4c-6.6,7-9.9,16.4-9.9,28.2v61.5H572V305.9
			H585.4z"/>
		<path class="st2" d="M707.5,330.2c-8.1,8.9-12.1,19.5-12.1,32.1s3.9,23.1,11.6,31.7c7.8,8.6,18.8,13,33.2,13
			c8.9,0,16.5-2.3,22.8-7v13.6c-6.3,4.2-14.4,6.4-24.4,6.4c-18,0-32.1-5.7-42.2-17c-10.1-11.3-15.2-24.9-15.2-40.6
			c0-15.7,5.2-29.4,15.5-41c10.3-11.6,24.3-17.4,41.8-17.4c9.1,0,17.2,2,24.4,5.9v13.6c-6.6-4.4-14.3-6.6-23.1-6.6
			C726.4,316.9,715.6,321.3,707.5,330.2z"/>
		<path class="st2" d="M792.7,417.3V262h13.4v155.3H792.7z"/>
		<path class="st2" d="M841.3,276.9c-1.8-1.8-2.6-4-2.6-6.6c0-2.6,0.9-4.9,2.6-6.7c1.8-1.8,4-2.7,6.6-2.7s4.9,0.9,6.7,2.7
			c1.8,1.8,2.7,4.1,2.7,6.7c0,2.6-0.9,4.8-2.7,6.6c-1.8,1.8-4.1,2.6-6.7,2.6S843,278.7,841.3,276.9z M841.3,417.3V305.9h13.4v111.3
			H841.3z"/>
		<path class="st2" d="M902.3,305.9V325c6.9-13.9,18.7-20.9,35.4-20.9c10.7,0,19.3,3.3,25.7,9.9c6.4,6.6,9.7,15.1,9.7,25.5v77.7
			h-13.4v-73.6c0-8.6-2.2-15.2-6.6-19.8c-4.4-4.5-10.7-6.8-18.8-6.8s-15.5,3.5-22.1,10.4c-6.6,7-9.9,16.4-9.9,28.2v61.5h-13.4V305.9
			H902.3z"/>
		<path class="st2" d="M1054.1,418.4c-16.5,0-30-5.2-40.3-15.5s-15.5-24.2-15.5-41.5c0-17.3,4.5-31.1,13.6-41.4
			c9.1-10.2,20.6-15.4,34.7-15.4s25.1,4.5,33.2,13.4c8.1,8.9,12.1,21.5,12.1,37.8c0,5-0.3,8.9-0.9,11.9h-78.6
			c1,12.3,5.3,21.7,12.7,28.2c7.5,6.5,17.4,9.8,29.9,9.8c12.4,0,22.4-2.5,29.9-7.5v13.6C1076,416.2,1065.8,418.4,1054.1,418.4z
			 M1078,355.3v-5.1c0-10.1-2.8-18.2-8.5-24.2c-5.6-6-13.2-9-22.6-9s-17.3,3.3-23.6,9.9c-6.3,6.6-10,16-11,28.3H1078z"/>
		<path class="st2" d="M1194.2,262h13.4v155.3h-13.4V401c-7.8,12-19.2,18-34.3,18c-15.1,0-26.8-5.5-35.1-16.4
			c-8.3-10.9-12.5-24.6-12.5-41.1s4.5-30.2,13.4-41.1c8.9-10.9,20.5-16.4,34.8-16.4s25.5,6.1,33.7,18.4V262z M1135.7,394.2
			c6.2,8.1,14.1,12.1,23.6,12.1c9.5,0,17.7-3.5,24.6-10.4c6.9-7,10.3-18.6,10.3-34.8c0-8.2-1.1-15.3-3.4-21.4
			c-2.3-6.1-5.2-10.7-8.9-13.7c-6.7-6-13.8-9-21.3-9c-10,0-18.2,4-24.6,12c-6.4,8-9.7,18.9-9.7,32.6
			C1126.3,375.3,1129.4,386.2,1135.7,394.2z"/>
		<path class="st2" d="M1293.9,417.3l10.3-148h18.7l19.3,54.2l26.1,75.3c10.1-27.7,26.1-70.9,47.9-129.6h18.7l12.5,148h-13.6
			l-11-130.2c-9.4,26.2-24.9,68.4-46.6,126.5h-16l-43.9-125c-1.3,21.5-4.2,64.4-8.8,128.7H1293.9z"/>
		<path class="st2" d="M1481.2,276.9c-1.8-1.8-2.6-4-2.6-6.6c0-2.6,0.9-4.9,2.6-6.7c1.8-1.8,4-2.7,6.6-2.7s4.9,0.9,6.7,2.7
			c1.8,1.8,2.7,4.1,2.7,6.7c0,2.6-0.9,4.8-2.7,6.6c-1.8,1.8-4.1,2.6-6.7,2.6S1483,278.7,1481.2,276.9z M1481.2,417.3V305.9h13.4
			v111.3H1481.2z"/>
		<path class="st2" d="M1542.3,305.9V325c6.9-13.9,18.7-20.9,35.4-20.9c10.7,0,19.3,3.3,25.7,9.9c6.4,6.6,9.7,15.1,9.7,25.5v77.7
			h-13.4v-73.6c0-8.6-2.2-15.2-6.6-19.8c-4.4-4.5-10.7-6.8-18.8-6.8s-15.5,3.5-22.1,10.4c-6.6,7-9.9,16.4-9.9,28.2v61.5h-13.4V305.9
			H1542.3z"/>
		<path class="st2" d="M1720.2,262h13.4v155.3h-13.4V401c-7.8,12-19.2,18-34.3,18c-15.1,0-26.8-5.5-35.1-16.4
			c-8.3-10.9-12.5-24.6-12.5-41.1s4.5-30.2,13.4-41.1c8.9-10.9,20.5-16.4,34.8-16.4s25.5,6.1,33.7,18.4V262z M1661.7,394.2
			c6.2,8.1,14.1,12.1,23.6,12.1c9.5,0,17.7-3.5,24.6-10.4c6.9-7,10.3-18.6,10.3-34.8c0-8.2-1.1-15.3-3.4-21.4
			c-2.3-6.1-5.2-10.7-8.9-13.7c-6.7-6-13.8-9-21.3-9c-10,0-18.2,4-24.6,12c-6.4,8-9.7,18.9-9.7,32.6
			C1652.3,375.3,1655.4,386.2,1661.7,394.2z"/>
		<path class="st2" d="M1797.3,317.4c-6.4,0-11.5,1.5-15.3,4.5c-3.7,3-5.6,6.4-5.6,10.3c0,3.9,0.5,6.9,1.6,9.1
			c1.1,2.2,3,4.2,5.6,6.1c3.5,2.2,9.7,5.1,18.4,8.7c8.8,3.6,15.9,7.8,21.4,12.7c5.5,4.9,8.2,11.8,8.2,20.5c0,8.8-3.2,15.9-9.6,21.2
			c-6.4,5.3-15.7,8-28,8s-22.5-2.2-30.7-6.6v-13.8c9.8,5.6,20.3,8.3,31.6,8.3c7.5,0,13.1-1.5,17-4.6c3.9-3.1,5.8-7.3,5.8-12.7
			c0-5.4-2-9.7-6-13c-4-3.2-10.6-6.6-19.7-10.2c-9.1-3.6-16.3-7.7-21.5-12.4c-5.3-4.7-7.9-11.3-7.9-19.9c0-8.6,3.3-15.5,9.9-20.9
			c6.6-5.3,15.4-8,26.4-8c11,0,19.7,1.7,26.1,5.1v13.4C1818.3,319.3,1809,317.4,1797.3,317.4z"/>
	</g>
	<text transform="matrix(1 0 0 1 1146.3379 556.1816)" class="st0 st6 st4">Arts and Community</text>
	<g>
		<path class="st2" d="M1204.8,556.2l-7-20.5H1165l-7.1,20.5h-7.4l26.1-74h9.9l25.6,74H1204.8z M1167.1,529.6h28.7l-14.2-41.7
			C1178.8,496.4,1174,510.3,1167.1,529.6z"/>
		<path class="st2" d="M1231.3,500.5v9.4c3.1-6.7,8.3-10.1,15.6-10.1c0.5,0,1.4,0.1,2.7,0.2v6.8c-1.5-0.4-2.9-0.7-4.4-0.7
			c-4,0-7.3,2-9.9,5.9c-2.7,3.9-4,8.3-4,13v31.1h-6.7v-55.7H1231.3z"/>
		<path class="st2" d="M1269.4,506.2v34.6c0,6.4,3,9.6,8.9,9.6c2.9,0,5.4-0.8,7.5-2.5v6.8c-2.1,1.4-4.6,2.1-7.4,2.1
			c-10.5,0-15.8-5.4-15.8-16.3v-34.3h-9.1v-5.7h9.1v-13.9h6.8v13.9h15.9v5.7H1269.4z"/>
		<path class="st2" d="M1314.2,506.2c-3.2,0-5.8,0.8-7.6,2.3c-1.9,1.5-2.8,3.2-2.8,5.2c0,1.9,0.3,3.5,0.8,4.6
			c0.5,1.1,1.5,2.1,2.8,3.1c1.8,1.1,4.8,2.5,9.2,4.3c4.4,1.8,8,3.9,10.7,6.4c2.7,2.5,4.1,5.9,4.1,10.3c0,4.4-1.6,7.9-4.8,10.6
			c-3.2,2.7-7.9,4-14,4s-11.3-1.1-15.4-3.3v-6.9c4.9,2.8,10.2,4.2,15.8,4.2c3.7,0,6.6-0.8,8.5-2.3c1.9-1.5,2.9-3.7,2.9-6.4
			c0-2.7-1-4.9-3-6.5c-2-1.6-5.3-3.3-9.8-5.1c-4.5-1.8-8.1-3.9-10.8-6.2c-2.6-2.3-4-5.7-4-9.9c0-4.3,1.6-7.8,4.9-10.4
			c3.3-2.7,7.7-4,13.2-4s9.8,0.8,13.1,2.5v6.7C1324.7,507.2,1320.1,506.2,1314.2,506.2z"/>
		<path class="st2" d="M1387.1,499.6c13.6,0,20.4,7.1,20.4,21.4v35.1h-6.7v-6.5c-3.1,4.7-8.4,7-16,7c-5.1,0-9.3-1.5-12.6-4.6
			c-3.3-3-4.9-7.1-4.9-12.1c0-5.1,2.1-9.1,6.2-12c4.1-3,9.6-4.4,16.4-4.4h10.9V521c0-5-1.1-8.7-3.2-11.3c-2.1-2.5-5.9-3.8-11.3-3.8
			c-5.4,0-10.4,1.6-15,4.7v-7.2C1375.7,500.9,1380.9,499.6,1387.1,499.6z M1400.9,529.7H1390c-5.2,0-9.1,1-11.6,3
			c-2.6,2-3.8,4.5-3.8,7.6c0,3,1,5.5,3,7.4c2,1.9,5.1,2.9,9.2,2.9c4.1,0,7.5-1.2,10.2-3.6c2.6-2.4,4-5.5,4-9.2V529.7z"/>
		<path class="st2" d="M1430.3,500.5v9.6c3.4-7,9.3-10.4,17.7-10.4c5.3,0,9.6,1.6,12.8,4.9c3.2,3.3,4.8,7.5,4.8,12.7v38.9h-6.7
			v-36.8c0-4.3-1.1-7.6-3.3-9.9c-2.2-2.3-5.3-3.4-9.4-3.4c-4.1,0-7.7,1.7-11,5.2c-3.3,3.5-4.9,8.2-4.9,14.1v30.7h-6.7v-55.7H1430.3z
			"/>
		<path class="st2" d="M1519.2,478.5h6.7v77.6h-6.7v-8.1c-3.9,6-9.6,9-17.1,9c-7.5,0-13.4-2.7-17.6-8.2c-4.2-5.5-6.3-12.3-6.3-20.5
			s2.2-15.1,6.7-20.5c4.5-5.5,10.3-8.2,17.4-8.2s12.8,3.1,16.9,9.2V478.5z M1490,544.7c3.1,4,7,6,11.8,6c4.8,0,8.9-1.7,12.3-5.2
			c3.4-3.5,5.2-9.3,5.2-17.4c0-4.1-0.6-7.7-1.7-10.7c-1.1-3-2.6-5.3-4.4-6.9c-3.4-3-6.9-4.5-10.7-4.5c-5,0-9.1,2-12.3,6
			c-3.2,4-4.8,9.4-4.8,16.3C1485.3,535.2,1486.9,540.6,1490,544.7z"/>
		<path class="st2" d="M1603.1,487.7c-8.5,0-15.6,2.9-21.2,8.6c-5.7,5.7-8.5,13.3-8.5,22.8c0,9.4,2.8,17.1,8.4,22.8
			c5.6,5.8,13,8.7,22.3,8.7c7.2,0,13.3-1.9,18.1-5.7v7.5c-4.5,3.1-10.6,4.7-18.4,4.7c-11.2,0-20.2-3.4-27.1-10.2
			c-6.9-6.8-10.3-16-10.3-27.5c0-11.5,3.5-20.8,10.7-27.7c7.1-7,15.9-10.4,26.4-10.4c7.2,0,13.5,1.3,18.7,4v7.1
			c-3.2-1.7-6.1-2.9-8.6-3.6C1611,488,1607.5,487.7,1603.1,487.7z"/>
		<path class="st2" d="M1683.3,528.6c0,8.3-2.3,15.2-7,20.5c-4.7,5.4-11,8.1-18.9,8.1c-8,0-14.3-2.7-18.9-8.1
			c-4.6-5.4-6.9-12.2-6.9-20.4c0-8.2,2.4-15,7.1-20.6c4.8-5.6,11.1-8.3,19-8.3s14.1,2.7,18.7,8.2
			C1681,513.4,1683.3,520.3,1683.3,528.6z M1676.3,528.5c0-6.3-1.6-11.6-4.7-15.9c-3.1-4.3-7.8-6.4-13.9-6.4
			c-6.1,0-10.8,2.2-14.1,6.6c-3.3,4.4-4.9,9.7-4.9,15.8s1.7,11.4,5.1,15.8c3.4,4.4,8,6.5,13.8,6.5c5.8,0,10.4-2.1,13.7-6.4
			C1674.6,540.1,1676.3,534.8,1676.3,528.5z"/>
		<path class="st2" d="M1703.3,500.5v9.1c3.1-6.7,8.3-10,15.6-10c8.9,0,14.4,3.7,16.5,11c3.4-7.3,8.9-11,16.5-11
			c5.9,0,10.2,1.6,13.1,4.9c2.9,3.3,4.3,7.5,4.3,12.8v38.9h-6.7v-36.8c0-8.9-3.9-13.3-11.6-13.3c-3.8,0-7.2,1.8-10.2,5.3
			s-4.4,8.2-4.4,14.1v30.7h-6.7v-36.8c0-8.9-3.9-13.3-11.6-13.3c-3.8,0-7.2,1.8-10.2,5.3s-4.4,8.2-4.4,14.1v30.7h-6.7v-55.7H1703.3z
			"/>
		<path class="st2" d="M1791.9,500.5v9.1c3.1-6.7,8.3-10,15.6-10c8.9,0,14.4,3.7,16.5,11c3.4-7.3,8.9-11,16.5-11
			c5.9,0,10.2,1.6,13.1,4.9c2.9,3.3,4.3,7.5,4.3,12.8v38.9h-6.7v-36.8c0-8.9-3.9-13.3-11.6-13.3c-3.8,0-7.2,1.8-10.2,5.3
			s-4.4,8.2-4.4,14.1v30.7h-6.7v-36.8c0-8.9-3.9-13.3-11.6-13.3c-3.8,0-7.2,1.8-10.2,5.3s-4.4,8.2-4.4,14.1v30.7h-6.7v-55.7H1791.9z
			"/>
		<path class="st2" d="M1908.5,500.5h6.7v55.7h-6.7v-10c-2.9,7.2-8.8,10.8-17.7,10.8c-5.4,0-9.7-1.6-12.9-4.9
			c-3.2-3.3-4.8-7.6-4.8-12.9v-38.7h6.7v36.8c0,4.2,1.1,7.5,3.3,9.8c2.2,2.3,5.2,3.4,8.8,3.4c4.9,0,8.9-1.8,11.9-5.3
			c3-3.5,4.6-8.1,4.6-13.7V500.5z"/>
		<path class="st2" d="M1938.6,500.5v9.6c3.4-7,9.3-10.4,17.7-10.4c5.3,0,9.6,1.6,12.8,4.9c3.2,3.3,4.8,7.5,4.8,12.7v38.9h-6.7
			v-36.8c0-4.3-1.1-7.6-3.3-9.9c-2.2-2.3-5.3-3.4-9.4-3.4c-4.1,0-7.7,1.7-11,5.2c-3.3,3.5-4.9,8.2-4.9,14.1v30.7h-6.7v-55.7H1938.6z
			"/>
		<path class="st2" d="M1990.4,486c-0.9-0.9-1.3-2-1.3-3.3s0.4-2.4,1.3-3.3c0.9-0.9,2-1.4,3.3-1.4s2.4,0.5,3.3,1.4
			c0.9,0.9,1.4,2,1.4,3.3s-0.5,2.4-1.4,3.3c-0.9,0.9-2,1.3-3.3,1.3S1991.3,486.9,1990.4,486z M1990.4,556.2v-55.7h6.7v55.7H1990.4z"
			/>
		<path class="st2" d="M2024.6,506.2v34.6c0,6.4,3,9.6,8.9,9.6c2.9,0,5.4-0.8,7.5-2.5v6.8c-2.1,1.4-4.6,2.1-7.4,2.1
			c-10.5,0-15.8-5.4-15.8-16.3v-34.3h-9.1v-5.7h9.1v-13.9h6.8v13.9h15.9v5.7H2024.6z"/>
		<path class="st2" d="M2053.7,574.6c-1.5,0-2.9-0.2-4.2-0.5v-6.6c1.3,0.4,2.6,0.5,3.7,0.5c7.8,0,13.3-4.5,16.4-13.4l-22.7-54.1h7.7
			l18.3,45.5c0.7-2.4,6.2-17.6,16.4-45.5h7.5l-20.2,54.2c-2.8,7.5-6.1,12.7-9.9,15.6C2062.8,573.2,2058.5,574.6,2053.7,574.6z"/>
	</g>
</g>
</svg>
